<?xml version="1.0" encoding="UTF-8"?>
<svg xmlns="http://www.w3.org/2000/svg" viewBox="0 0 181.37 209.4">
  <defs>
    <style>
      .hex-border { fill: #7d5bff; }
      .hex-bg { fill: #ffffff; }
      .logo-path { fill: #7d5bff; }
      .title-text {
        fill: #7d5bff;
        font-family: 'Helvetica Neue', Helvetica, Arial, sans-serif;
        font-size: 19px;
        font-weight: 700;
        text-anchor: middle;
      }
    </style>
  </defs>
  <!-- Hex border (standard hex sticker proportions) -->
  <polygon class="hex-border" points="90.69 0 181.37 52.35 181.37 157.05 90.69 209.4 0 157.05 0 52.35 90.69 0"/>
  <!-- Hex inner fill with border -->
  <polygon class="hex-bg" points="90.69 7 174.37 55.85 174.37 153.55 90.69 202.4 7 153.55 7 55.85 90.69 7"/>
  <!-- Logo (original 20x20, scaled 6x = 120x120, centered horizontally, placed in upper portion) -->
  <g transform="translate(30.69, 28) scale(6)">
    <path class="logo-path" d="M7.64,10.29l.05-.04h0s0,0,0,0h0s-.04-.05-.04-.05l-.05,.04,.05-.05h0s-3.35-3.35-3.35-3.35h0s0,0,0,0l-.04-.04h0c-.25-.2-.61-.19-.84,.04s-.24,.59-.04,.84l.05-.04-.05,.04h0s.04,.05,.04,.05l.05-.05-.05,.05h0s3.35,3.35,3.35,3.35h0s0,0,0,0l.04,.04h0s0,0,0,0c.25,.2,.61,.19,.84-.04,.23-.23,.24-.59,.04-.84l-.05,.04Z"/>
    <polygon class="logo-path" points="7.64 10.29 7.7 10.25 7.7 10.25 7.64 10.29"/>
    <polygon class="logo-path" points="4.58 6.21 4.53 6.25 4.53 6.25 4.58 6.21"/>
    <path class="logo-path" d="M12.39,10.25l-.05-.05h0s-.04,.04-.04,.04h0c-.2,.25-.19,.61,.04,.84h0c.23,.23,.59,.24,.84,.04l-.04-.05,.04,.05h0s.04-.04,.04-.04l-.05-.05,.05,.05h0s3.35-3.35,3.35-3.35l-.05-.05,.05,.05h0s.04-.04,.04-.04l-.05-.05,.05,.05h0c.2-.25,.19-.61-.04-.84-.23-.23-.59-.24-.84-.04l.04,.05-.04-.05h0s-.04,.04-.04,.04l.05,.05-.05-.05h0s0,0,0,0l-3.35,3.35,.05,.05Z"/>
    <polygon class="logo-path" points="15.74 6.9 15.7 6.85 15.7 6.85 15.74 6.9"/>
    <path class="logo-path" d="M18.78,2.36c-.03-.15-.13-.28-.26-.36-.14-.08-.3-.09-.44-.04C12.54,3.91,10.56,.41,10.48,.26c-.19-.35-.77-.35-.95,0-.02,.04-2.02,3.67-7.6,1.7-.15-.05-.31-.04-.44,.04-.14,.08-.23,.21-.26,.36-.03,.12-2.36,11.76,7.23,17.01,.4,.22,.81,.43,1.25,.62V10.21c0-.36-.14-.71-.4-.97l-3.87-3.87h0s0,0,0,0l-.04-.04h0s0,0,0,0c-.25-.2-.61-.19-.84,.04h0c-.23,.23-.24,.59-.04,.84h0s.04,.05,.04,.05h0s3.87,3.88,3.87,3.88c.02,.02,.03,.05,.03,.08v7.93C1.2,13.79,1.84,5.5,2.17,3.18c4.47,1.33,6.88-.65,7.83-1.75,.95,1.11,3.35,3.09,7.83,1.75,.34,2.31,.97,10.61-6.27,14.96v-7.93s.01-.06,.03-.08l3.87-3.87-.05-.05,.05,.05h0s.04-.04,.04-.04l-.05-.05,.05,.05h0c.2-.25,.19-.61-.04-.84h0c-.23-.23-.59-.24-.84-.04h0s0,0,0,0l-.04,.04,.05,.05-.05-.05h0s-3.87,3.88-3.87,3.88c-.26,.26-.4,.6-.4,.97v9.79c.44-.19,.85-.4,1.25-.62C21.14,14.12,18.81,2.49,18.78,2.36Z"/>
  </g>
  <!-- Title at bottom -->
  <text class="title-text" x="90.69" y="165">immunum</text>
</svg>
