<?xml version="1.0" encoding="UTF-8"?>
<svg id="Layer_2" data-name="Layer 2" xmlns="http://www.w3.org/2000/svg" viewBox="0 0 176.21 38.75">
  <defs>
    <style>
      .cls-1 {
        fill: #231e60;
      }

      .cls-2 {
        fill: #7d5bff;
      }
    </style>
  </defs>
  <g>
    <path class="cls-2" d="M14.54,19.76l.08-.06h0s0,0,0,0h0s-.06-.07-.06-.07l-.07,.07,.07-.07h0s-4.85-4.86-4.85-4.86h0s0,0,0,0l-.06-.06h0c-.36-.29-.88-.27-1.21,.06s-.35,.86-.06,1.21l.08-.06-.08,.06h0s.06,.07,.06,.07l.07-.07-.07,.07h0s4.85,4.86,4.85,4.86h0s0,0,0,0l.06,.06h0s0,0,0,0c.36,.29,.88,.27,1.21-.06,.33-.33,.35-.86,.06-1.21l-.08,.06Z"/>
    <polygon class="cls-2" points="14.54 19.76 14.62 19.7 14.62 19.7 14.54 19.76"/>
    <polygon class="cls-2" points="10.1 13.83 10.03 13.9 10.03 13.9 10.1 13.83"/>
    <path class="cls-2" d="M21.43,19.7l-.07-.07h0s-.06,.06-.06,.06h0c-.29,.36-.27,.89,.06,1.22h0c.33,.33,.86,.35,1.21,.06l-.06-.08,.06,.08h0s.06-.06,.06-.06l-.07-.07,.07,.07h0s4.85-4.86,4.85-4.86l-.07-.07,.07,.07h0s.06-.07,.06-.07l-.07-.07,.07,.07h0c.29-.36,.27-.89-.06-1.22-.33-.33-.86-.35-1.21-.06l.06,.08-.06-.08h0s-.06,.06-.06,.06l.07,.07-.07-.07h0s0,0,0,0l-4.85,4.85,.07,.07Z"/>
    <polygon class="cls-2" points="26.28 14.84 26.22 14.77 26.22 14.77 26.28 14.84"/>
    <path class="cls-2" d="M30.69,8.26c-.05-.22-.19-.41-.38-.52-.2-.11-.43-.13-.64-.06-8.02,2.82-10.9-2.25-11.02-2.47-.27-.51-1.11-.51-1.38,0-.03,.05-2.94,5.32-11.02,2.47-.21-.08-.45-.06-.64,.06-.2,.11-.34,.3-.38,.52-.04,.18-3.42,17.05,10.48,24.67,.58,.32,1.17,.62,1.81,.9v-14.2c0-.53-.21-1.03-.58-1.4l-5.62-5.62h0s0,0,0,0l-.06-.06h0s0,0,0,0c-.36-.29-.88-.27-1.21,.06h0c-.33,.33-.35,.86-.06,1.21h0s.06,.07,.06,.07h0s5.62,5.62,5.62,5.62c.03,.03,.05,.08,.05,.12v11.5C5.19,24.83,6.12,12.8,6.61,9.45c6.49,1.94,9.98-.94,11.35-2.54,1.37,1.6,4.86,4.48,11.35,2.54,.49,3.35,1.41,15.38-9.1,21.69v-11.5s.02-.09,.05-.12l5.62-5.62-.07-.07,.07,.07h0s.06-.07,.06-.07l-.07-.07,.07,.07h0c.29-.36,.27-.88-.06-1.22h0c-.33-.33-.86-.35-1.21-.06h0s0,0,0,0l-.06,.06,.07,.07-.07-.07h0s-5.62,5.62-5.62,5.62c-.37,.37-.58,.88-.58,1.4v14.2c.64-.28,1.24-.59,1.81-.9,13.9-7.62,10.52-24.49,10.48-24.67Z"/>
  </g>
  <g>
    <path class="cls-1" d="M35.92,9.67h3.29V29h-3.29V9.67Z"/>
    <path class="cls-1" d="M46.55,29h-3.29V9.67h3.67l6.52,15.03,6.52-15.03h3.64V29h-3.26V15.94l-5.66,13.06h-2.49l-5.66-13.06v13.06Z"/>
    <path class="cls-1" d="M70.96,29h-3.29V9.67h3.67l6.52,15.03,6.52-15.03h3.65V29h-3.26V15.94l-5.66,13.06h-2.49l-5.66-13.06v13.06Z"/>
    <path class="cls-1" d="M92.01,9.67h3.26v12.32c0,.98,.2,1.79,.59,2.46,.4,.66,.93,1.16,1.62,1.48,.68,.32,1.45,.48,2.32,.48s1.69-.16,2.38-.48c.68-.32,1.22-.81,1.62-1.48,.4-.66,.59-1.48,.59-2.46V9.67h3.26v12.24c0,1.23-.22,2.31-.65,3.22-.43,.91-1.02,1.67-1.77,2.28-.75,.61-1.58,1.06-2.51,1.35-.93,.29-1.91,.44-2.94,.44-1.36,0-2.63-.27-3.81-.8s-2.13-1.34-2.86-2.42-1.09-2.43-1.09-4.07V9.67Z"/>
    <path class="cls-1" d="M127.25,9.67V29h-3.34l-9-14.17v14.17h-3.29V9.67h3.37l9,14.11V9.67h3.26Z"/>
    <path class="cls-1" d="M131.23,9.67h3.26v12.32c0,.98,.2,1.79,.59,2.46,.4,.66,.93,1.16,1.62,1.48,.68,.32,1.45,.48,2.32,.48s1.69-.16,2.38-.48c.68-.32,1.22-.81,1.62-1.48,.4-.66,.59-1.48,.59-2.46V9.67h3.26v12.24c0,1.23-.22,2.31-.65,3.22-.43,.91-1.02,1.67-1.77,2.28-.75,.61-1.58,1.06-2.51,1.35-.93,.29-1.91,.44-2.94,.44-1.36,0-2.63-.27-3.81-.8s-2.13-1.34-2.86-2.42-1.09-2.43-1.09-4.07V9.67Z"/>
    <path class="cls-1" d="M154.13,29h-3.29V9.67h3.67l6.52,15.03,6.52-15.03h3.65V29h-3.26V15.94l-5.66,13.06h-2.49l-5.66-13.06v13.06Z"/>
  </g>
</svg>
